Coordinates
version=1
nRows=17
nColumns=38
inDegrees=no

Units are S.I. units (second, meters, Newtons, ...)
If the header above contains a line with 'inDegrees', this indicates whether rotational values are in degrees (yes) or radians (no).

endheader
time	pelvis_tilt	pelvis_list	pelvis_rotation	pelvis_tx	pelvis_ty	pelvis_tz	hip_flexion_r	hip_adduction_r	hip_rotation_r	knee_angle_r	ankle_angle_r	subtalar_angle_r	mtp_angle_r	hip_flexion_l	hip_adduction_l	hip_rotation_l	knee_angle_l	ankle_angle_l	subtalar_angle_l	mtp_angle_l	lumbar_extension	lumbar_bending	lumbar_rotation	arm_flex_r	arm_add_r	arm_rot_r	elbow_flex_r	pro_sup_r	wrist_flex_r	wrist_dev_r	arm_flex_l	arm_add_l	arm_rot_l	elbow_flex_l	pro_sup_l	wrist_flex_l	wrist_dev_l
0.5	2.92487	1.50229	1.79884	0.674543	0.426713	1.01331	0.0755789	0.0113929	-0.0386839	0.682919	0.311963	0	0	0.548578	-0.114767	-0.25509	0.575927	0.217653	0	0	0.0489924	0.0568727	0.187226	0.0320142	-0.516896	0.381958	0.83914	1.09123	0	0	-0.15349	-0.17977	0.725923	0.246066	1.13856	0	0
0.51	2.91396	1.50875	1.8057	0.674933	0.41492	1.01218	0.0519907	0.010363	-0.0385364	0.671986	0.309009	0	0	0.539296	-0.114518	-0.255958	0.554449	0.226906	0	0	0.0439591	0.053867	0.192988	0.0383668	-0.519811	0.383313	0.848485	1.0919	0	0	-0.156829	-0.176863	0.708792	0.23828	1.15352	0	0
0.52	2.89672	1.51466	1.81774	0.675228	0.403045	1.011	0.0305911	0.00816434	-0.0398275	0.663851	0.304565	0	0	0.530804	-0.115043	-0.256087	0.538974	0.233868	0	0	0.0394452	0.050422	0.198651	0.0458799	-0.522879	0.389192	0.856566	1.09089	0	0	-0.160485	-0.173759	0.686967	0.230383	1.17236	0	0
0.53	2.90724	1.51154	1.8002	0.675393	0.390993	1.00902	0.0243075	0.00447882	-0.0407338	0.667743	0.305091	0	0	0.534191	-0.116829	-0.255831	0.532738	0.23674	0	0	0.0483176	0.04662	0.203129	0.0573698	-0.526711	0.411964	0.858302	1.07577	0	0	-0.16852	-0.170862	0.658243	0.222941	1.1961	0	0
0.54	2.87019	1.51806	1.82973	0.675574	0.37899	1.00796	0.00606066	0.000353801	-0.0423977	0.666176	0.296299	0	0	0.52592	-0.119187	-0.257007	0.528736	0.237378	0	0	0.0418073	0.042236	0.212079	0.0598443	-0.527905	0.409049	0.868096	1.08362	0	0	-0.17011	-0.170018	0.648961	0.216897	1.20542	0	0
0.55	2.87331	1.51441	1.81712	0.675688	0.366689	1.00613	0.00318091	-0.00406271	-0.0398941	0.674199	0.289642	0	0	0.529944	-0.122851	-0.258859	0.532643	0.234691	0	0	0.056548	0.0407552	0.239692	0.031992	-0.518772	0.355461	0.876688	1.1364	0	0	-0.159737	-0.191029	0.883018	0.221423	0.982776	0	0
0.56	2.86406	1.51339	1.81622	0.675832	0.354379	1.00448	-0.0012787	-0.00863158	-0.0360146	0.684187	0.282244	0	0	0.531359	-0.127592	-0.262127	0.542523	0.231544	0	0	0.0595557	0.0355882	0.247233	0.0354093	-0.519024	0.361584	0.882611	1.1427	0	0	-0.16538	-0.191	0.870726	0.216934	0.992598	0	0
0.57	2.84998	1.51297	1.81984	0.676075	0.341872	1.00298	-0.00583098	-0.013676	-0.030926	0.694717	0.274264	0	0	0.531385	-0.13232	-0.264684	0.55625	0.227607	0	0	0.0616301	0.0302151	0.253684	0.039259	-0.51985	0.371353	0.888307	1.14394	0	0	-0.171562	-0.190421	0.849752	0.212471	1.00947	0	0
0.58	2.83625	1.51153	1.82289	0.676397	0.329077	1.00147	-0.00811498	-0.019464	-0.0254559	0.708009	0.264685	0	0	0.531573	-0.136835	-0.266472	0.57373	0.221812	0	0	0.0664255	0.0252857	0.262463	0.0374145	-0.519447	0.374263	0.894474	1.14893	0	0	-0.1756	-0.19298	0.866271	0.209372	0.992056	0	0
0.59	2.81374	1.50953	1.83465	0.676839	0.315985	1	-0.00865621	-0.0265331	-0.02012	0.724512	0.25288	0	0	0.531013	-0.140213	-0.268506	0.593254	0.212071	0	0	0.0702768	0.018736	0.267775	0.0374083	-0.518192	0.380567	0.90029	1.15398	0	0	-0.183629	-0.191551	0.823753	0.204287	1.03145	0	0
0.6	2.76768	1.50694	1.87073	0.677505	0.302653	0.998817	-0.00829204	-0.0359444	-0.0153836	0.742348	0.236215	0	0	0.528655	-0.140803	-0.272264	0.611597	0.197214	0	0	0.0794403	0.0124003	0.282156	0.0226988	-0.513933	0.366648	0.90597	1.17156	0	0	-0.182768	-0.203401	0.924957	0.208098	0.932262	0	0
0.61	2.66189	1.50626	1.9683	0.678373	0.289194	0.998277	-0.0111698	-0.0489013	-0.0118562	0.760081	0.218544	0	0	0.521545	-0.137146	-0.281143	0.627165	0.182272	0	0	0.0810221	5.53719e-05	0.286046	0.0205746	-0.509128	0.370562	0.907285	1.1767	0	0	-0.187462	-0.204815	0.91098	0.203353	0.944966	0	0
0.62	2.50947	1.5046	2.11446	0.679375	0.275808	0.998413	-0.0145586	-0.0645921	-0.00770968	0.778166	0.203571	0	0	0.513731	-0.130135	-0.295267	0.641277	0.171248	0	0	0.0810694	-0.0168278	0.288413	0.0217234	-0.504714	0.38358	0.904033	1.16724	0	0	-0.190368	-0.207015	0.89793	0.197482	0.957329	0	0
0.63	2.36488	1.50035	2.25458	0.68041	0.262525	0.99891	-0.0142964	-0.0803535	-0.00239037	0.799469	0.178213	0	0	0.507857	-0.122608	-0.306038	0.655691	0.156185	0	0	0.0826707	-0.0350496	0.292467	0.0169722	-0.494975	0.382804	0.897951	1.17381	0	0	-0.189357	-0.213754	0.927931	0.194247	0.928142	0	0
0.64	2.27356	1.49402	2.34472	0.681979	0.249478	0.999522	-0.00794297	-0.0949273	0.00185925	0.825383	0.147203	0	0	0.504454	-0.113645	-0.303841	0.667893	0.141527	0	0	0.0846914	-0.0533051	0.289009	0.014745	-0.483008	0.381874	0.890769	1.1873	0	0	-0.192031	-0.210502	0.857453	0.184124	0.996775	0	0
0.65	2.27447	1.4838	2.34409	0.683804	0.235908	0.999625	0.00906165	-0.106911	0.00747681	0.854721	0.104738	0	0	0.507857	-0.104264	-0.293683	0.677834	0.130074	0	0	0.103053	-0.0633505	0.298629	-0.006509	-0.473268	0.366878	0.883748	1.19401	0	0	-0.18248	-0.231385	1.07153	0.190597	0.792848	0	0
0.66	2.25544	1.47764	2.36562	0.685914	0.222798	1.00015	0.0239277	-0.116901	0.0128749	0.885725	0.0626172	0	0	0.506355	-0.0953093	-0.284286	0.685443	0.121785	0	0	0.10821	-0.0750662	0.29252	-0.01313	-0.465874	0.369434	0.87919	1.19307	0	0	-0.183151	-0.232519	1.0558	0.184295	0.809895	0	0
